<svg xmlns="http://www.w3.org/2000/svg" width="20" height="17.779" viewBox="0 0 20 17.779">
  <path id="house-solid" d="M19.995,8.872a1.122,1.122,0,0,1-1.111,1.115H17.772L17.8,15.55a2.548,2.548,0,0,1-.017.281v.559a1.389,1.389,0,0,1-1.389,1.389h-.556c-.038,0-.076,0-.115,0s-.1,0-.146,0H13.612a1.389,1.389,0,0,1-1.389-1.389V13.334a1.11,1.11,0,0,0-1.111-1.111H8.89a1.11,1.11,0,0,0-1.111,1.111V16.39a1.389,1.389,0,0,1-1.389,1.389H4.448c-.052,0-.1,0-.156-.007s-.083.007-.125.007H3.611A1.389,1.389,0,0,1,2.222,16.39V12.5a.91.91,0,0,1,0-.1V9.987H1.111A1.1,1.1,0,0,1,0,8.872a1.129,1.129,0,0,1,.347-.833L9.251.278A1,1,0,0,1,10.015,0a1.153,1.153,0,0,1,.729.243l8.869,7.8A.951.951,0,0,1,19.995,8.872Z" fill="#0e0e0e"/>
</svg>
