<svg xmlns="http://www.w3.org/2000/svg" width="20" height="14.734" viewBox="0 0 20 14.734">
  <path id="queue_music_black_24dp_1_" data-name="queue_music_black_24dp (1)" d="M14.579,6H4.053a1.053,1.053,0,1,0,0,2.105H14.579a1.053,1.053,0,0,0,0-2.105Zm0,4.211H4.053a1.053,1.053,0,1,0,0,2.105H14.579a1.053,1.053,0,0,0,0-2.105ZM4.053,16.526h6.316a1.053,1.053,0,1,0,0-2.105H4.053a1.053,1.053,0,1,0,0,2.105ZM19.842,6a2.111,2.111,0,0,0-2.105,2.105v6.505a3.153,3.153,0,1,0,2.105,2.968V8.105h2.105a1.053,1.053,0,0,0,0-2.105Z" transform="translate(-3 -6)" fill="#0e0e0e"/>
</svg>
